<svg xmlns="http://www.w3.org/2000/svg" xml:space="preserve" width="1500" height="560" data-id="lg_hh8S1TtOnmkSoMFJJj" data-version="1"><g data-padding="20"><g transform="translate(10 11.618)scale(.9585)"><path fill="#cdcd0e" d="M576.863 560.119a45.92 45.92 0 0 1-45.92-45.92V45.815a45.92 45.92 0 0 1 69.569-39.376l390.32 234.192a45.92 45.92 0 0 1 0 78.752l-390.32 234.192a45.9 45.9 0 0 1-23.649 6.544m45.92-433.255V433.15l255.2-153.143Z"/><path fill="#fff" d="M610.723 209.867h26.68l-29.36 94.19h-32.79l-27.86-94.19h26.67q2.39 7.45 5.07 16.99t5.29 19.45 4.62 18.48 3.05 14.23h.6q1.04-5.66 3.05-14.23 2.02-8.57 4.62-18.41 2.61-9.83 5.29-19.37 2.69-9.54 5.07-17.14m64.23 71.1v23.1h-23.84v-94.34h42.02q14.16 0 22.66 3.43 8.49 3.43 12.22 11.18 3.72 7.75 3.72 21.01 0 12.52-3.72 20.34-3.73 7.82-12.22 11.55-8.5 3.73-22.66 3.73Zm14.31-51.72h-14.31v32.19h14.31q10.58 0 14.16-3.57 3.57-3.58 3.57-12.52 0-8.5-3.57-12.3-3.58-3.8-14.16-3.8m78.99 54.55h44.71v20.27h-68.55v-94.34h23.84Zm111.02-74.07 30.55 93.89v.45h-25.33q-1.05-3.58-2.46-8.2-1.42-4.62-3.06-9.84h-32.19q-2.98 10.43-5.51 18.04h-25.34v-.3l30.55-94.04Zm-16.1 16.99h-.59q-1.49 7.6-4.32 18.48t-5.96 22.2h21.31q-3.28-11.32-6.11-22.2-2.84-10.88-4.33-18.48m102.55 77.35h-23.85v-29.21l-30.55-64.68v-.45h26.08q4.62 12.07 7.38 19.3 2.75 7.23 4.32 11.33 1.56 4.09 2.46 6.63.89 2.53 1.94 5.36h.59q1.04-2.83 1.94-5.36.89-2.54 2.46-6.63 1.56-4.1 4.32-11.33t7.38-19.3h26.08v.45l-30.55 64.68Z"/><rect width="415.643" height="146.9" x="164.202" y="-193.443" fill="none" rx="0" ry="0" transform="translate(368.88 389.17)"/></g><path fill="transparent" stroke="transparent" d="M509 0h482v560H509z"/></g></svg>